<?xml version="1.0" encoding="UTF-8"?>
<svg version="1.1" xmlns="http://www.w3.org/2000/svg" width="360" height="360">
<path d="M0 0 C14.28203672 11.79820425 24.70070542 27.07210875 26.53320312 45.96264648 C27.52075494 65.39774995 22.16289818 80.83876865 10.125 96.0625 C2.15122297 106.85055128 0.6652094 119.85569424 -0.5246582 132.88183594 C-0.93593374 136.89753716 -1.39551751 140.0793978 -3.15234375 143.73828125 C-9.48623641 148.60825419 -18.92969739 147.98595554 -26.59375 147.953125 C-27.5990979 147.95503845 -28.6044458 147.9569519 -29.64025879 147.95892334 C-31.75122327 147.96027531 -33.86219635 147.95664848 -35.97314453 147.94824219 C-39.17890341 147.93752873 -42.38410201 147.94817149 -45.58984375 147.9609375 C-47.65364705 147.95961573 -49.71745001 147.95705298 -51.78125 147.953125 C-52.72633423 147.95717346 -53.67141846 147.96122192 -54.6451416 147.96539307 C-69.52714003 147.86205961 -69.52714003 147.86205961 -75.2421875 143.9296875 C-77.02842833 141.15860037 -77.42899757 139.08451013 -77.8125 135.8125 C-77.96203125 134.66136719 -78.1115625 133.51023437 -78.265625 132.32421875 C-78.47445312 130.52404297 -78.47445312 130.52404297 -78.6875 128.6875 C-80.27554362 115.35087438 -82.7890172 104.65857941 -90.6875 93.6875 C-102.42569509 76.53952804 -107.23139605 60.46683016 -104.38720703 39.47070312 C-101.26689873 23.55514331 -91.31296695 9.22418978 -78.48046875 -0.46484375 C-54.46362773 -16.35290781 -23.59509507 -17.6553576 0 0 Z M-72.6875 10.6875 C-73.32171875 11.11417969 -73.9559375 11.54085937 -74.609375 11.98046875 C-84.12376228 19.07261523 -90.78086707 32.22244899 -92.6875 43.6875 C-94.51456649 61.68348065 -89.84146437 75.49722504 -78.5625 89.625 C-68.81783151 102.38401927 -67.24260079 119.24626392 -65.6875 134.6875 C-62.85683735 135.63105422 -61.11907094 135.81397372 -58.18774414 135.81689453 C-57.27992691 135.82004669 -56.37210968 135.82319885 -55.43678284 135.82644653 C-54.45862106 135.8244223 -53.48045929 135.82239807 -52.47265625 135.8203125 C-50.96172646 135.82174759 -50.96172646 135.82174759 -49.42027283 135.82321167 C-47.28937721 135.82389235 -45.15847952 135.82204585 -43.02758789 135.81787109 C-39.76639133 135.81252686 -36.50533286 135.81781701 -33.24414062 135.82421875 C-31.17447886 135.82355784 -29.10481719 135.82227641 -27.03515625 135.8203125 C-26.05901871 135.82233673 -25.08288116 135.82436096 -24.0771637 135.82644653 C-23.16619431 135.82329437 -22.25522491 135.82014221 -21.31665039 135.81689453 C-20.51739639 135.81609894 -19.7181424 135.81530334 -18.89466858 135.81448364 C-16.70536044 135.68852755 -14.79056448 135.29224523 -12.6875 134.6875 C-12.58953125 133.56214844 -12.4915625 132.43679688 -12.390625 131.27734375 C-10.93126732 115.79118304 -8.82612991 98.18611126 2.25 86.3125 C11.80771792 76.048671 14.99816866 62.38225983 14.62890625 48.796875 C13.81895557 34.27876318 6.39889899 22.6215876 -3.6875 12.6875 C-8.534184 8.43298604 -13.7477043 5.18554492 -19.6875 2.6875 C-20.70650391 2.23697266 -20.70650391 2.23697266 -21.74609375 1.77734375 C-39.13956161 -4.70375779 -58.19592656 0.146049 -72.6875 10.6875 Z " fill="#0B0B0B" transform="translate(219.6875,128.3125)"/>
<path d="M0 0 C2 3 2 3 1.85464478 5.91543579 C0.89568154 9.37650376 -0.17286299 10.81513877 -2.67431641 13.35302734 C-3.84155746 14.55359268 -3.84155746 14.55359268 -5.03237915 15.77841187 C-5.88020966 16.62239532 -6.72804016 17.46637878 -7.6015625 18.3359375 C-8.47138763 19.21528961 -9.34121277 20.09464172 -10.23739624 21.00064087 C-12.54983226 23.32834254 -14.87458226 25.64291148 -17.203125 27.95446777 C-18.62388352 29.37388458 -20.03236273 30.80439641 -21.43701172 32.23974609 C-24.1406875 34.99855044 -26.86715251 37.73262907 -29.6015625 40.4609375 C-30.43724762 41.31706635 -31.27293274 42.17319519 -32.13394165 43.05526733 C-37.99934317 48.80580194 -37.99934317 48.80580194 -42.84570312 49.74633789 C-46.30939718 48.92679356 -47.54306777 48.23852419 -49.8671875 45.59765625 C-50.52138672 44.87610352 -51.17558594 44.15455078 -51.84960938 43.41113281 C-52.51798828 42.63608398 -53.18636719 41.86103516 -53.875 41.0625 C-55.27725778 39.49485104 -56.68089421 37.92843412 -58.0859375 36.36328125 C-58.75592773 35.60740723 -59.42591797 34.8515332 -60.11621094 34.07275391 C-63.09180369 30.79867635 -66.31075281 27.82387247 -69.59375 24.859375 C-71 23 -71 23 -71.3515625 20.41796875 C-71 18 -71 18 -68.875 15.5625 C-66 14 -66 14 -63.34375 14.40234375 C-58.51976148 16.7072635 -55.31165805 20.18667558 -51.625 24 C-50.88894531 24.73734375 -50.15289062 25.4746875 -49.39453125 26.234375 C-44 31.71898191 -44 31.71898191 -44 34 C-39.08708397 31.45958302 -35.62584616 27.86569809 -31.80078125 23.9609375 C-30.78639229 22.93874619 -30.78639229 22.93874619 -29.75151062 21.89590454 C-27.60034794 19.72698472 -25.45601809 17.55147309 -23.3125 15.375 C-21.15739411 13.19228609 -19.00084665 11.01104662 -16.84135437 8.83267212 C-15.49973105 7.47877935 -14.16078977 6.12222261 -12.82478333 4.76278687 C-12.22042953 4.15190216 -11.61607574 3.54101746 -10.9934082 2.91162109 C-10.46221878 2.37217865 -9.93102936 1.83273621 -9.38374329 1.27694702 C-6.25243169 -1.61269231 -3.97198603 -0.99299651 0 0 Z " fill="#0C0C0C" transform="translate(216,166)"/>
<path d="M0 0 C1.69195496 -0.01418472 1.69195496 -0.01418472 3.41809082 -0.02865601 C5.23850891 -0.01954697 5.23850891 -0.01954697 7.09570312 -0.01025391 C8.3457312 -0.01312408 9.59575928 -0.01599426 10.88366699 -0.01895142 C13.52676564 -0.02099307 16.16903202 -0.01696524 18.81201172 -0.00292969 C22.19493618 0.01416247 25.57714658 0.00431781 28.96004486 -0.01364708 C32.1927897 -0.02711145 35.42544897 -0.0176766 38.65820312 -0.01025391 C39.87181519 -0.0163266 41.08542725 -0.02239929 42.33581543 -0.02865601 C43.4637854 -0.01919952 44.59175537 -0.00974304 45.75390625 0 C46.74555786 0.00238678 47.73720947 0.00477356 48.75891113 0.00723267 C51.82619941 0.45355336 53.21001666 1.18703526 55.37695312 3.38818359 C55.75195312 6.95068359 55.75195312 6.95068359 55.37695312 10.38818359 C51.99433318 13.77080354 47.81863129 13.51346801 43.22290039 13.53344727 C41.72092857 13.54301704 41.72092857 13.54301704 40.18861389 13.55278015 C39.1176799 13.55389297 38.04674591 13.5550058 36.94335938 13.55615234 C35.83266586 13.55948074 34.72197235 13.56280914 33.57762146 13.5662384 C31.23168349 13.57129468 28.88573834 13.57364713 26.53979492 13.57348633 C22.95609678 13.57567344 19.37270624 13.59384491 15.7890625 13.61279297 C13.50716251 13.61572704 11.22526106 13.61771175 8.94335938 13.61865234 C7.33999474 13.62943062 7.33999474 13.62943062 5.70423889 13.64042664 C-4.07254056 13.61048087 -4.07254056 13.61048087 -8.62304688 11.38818359 C-10.62304688 8.38818359 -10.62304688 8.38818359 -10.49804688 5.88818359 C-8.68993652 0.722154 -5.08650274 0.01224257 0 0 Z " fill="#0D0D0D" transform="translate(157.623046875,281.61181640625)"/>
<path d="M0 0 C2.25090994 1.87638312 4.00082096 4.08108625 5.8125 6.375 C6.32949463 7.0047876 6.84648926 7.6345752 7.37915039 8.28344727 C8.43084903 9.56759419 9.47607723 10.85706855 10.51464844 12.15185547 C11.86008031 13.82590532 13.22409998 15.48119564 14.6015625 17.12890625 C16.76472544 19.72976604 18.88942775 22.35641154 21 25 C21.56074219 25.67933594 22.12148437 26.35867187 22.69921875 27.05859375 C24.75798675 29.68140778 25.98546294 31.36036924 26.0625 34.75 C24.75010689 37.52918542 23.75421259 38.62289371 21 40 C17.16895455 39.9346238 16.03282965 39.03254745 13.2734375 36.296875 C12.29498507 35.12474779 11.3294852 33.94172537 10.375 32.75 C9.8601001 32.12754395 9.3452002 31.50508789 8.81469727 30.86376953 C7.74029138 29.56490742 6.67043848 28.26226678 5.60498047 26.95605469 C3.09159103 23.8928852 0.51053092 20.88805145 -2.0625 17.875 C-9.9046135 8.66770547 -9.9046135 8.66770547 -10.4375 4.9375 C-10 2 -10 2 -8.375 0.0625 C-5.05528424 -1.422636 -3.48030892 -1.04451556 0 0 Z " fill="#0F0F0F" transform="translate(100,75)"/>
<path d="M0 0 C2.9375 1.1875 2.9375 1.1875 3.9375 3.1875 C4.04629128 4.52405927 4.09641077 5.86568543 4.11450195 7.20654297 C4.12733719 8.03435272 4.14017242 8.86216248 4.15339661 9.71505737 C4.16447701 11.05879929 4.16447701 11.05879929 4.17578125 12.4296875 C4.18788887 13.80956345 4.18788887 13.80956345 4.20024109 15.21731567 C4.21408357 17.16585402 4.22480499 19.11441663 4.23266602 21.06298828 C4.24989171 24.04376062 4.29377737 27.02342756 4.33789062 30.00390625 C4.34801635 31.89582517 4.35653283 33.78775352 4.36328125 35.6796875 C4.38078934 36.57146698 4.39829742 37.46324646 4.41633606 38.38204956 C4.39474194 44.53879067 4.39474194 44.53879067 2.10620117 47.78564453 C-0.0625 49.1875 -0.0625 49.1875 -3.1875 49.125 C-6.0625 48.1875 -6.0625 48.1875 -8.0625 45.1875 C-8.32319641 43.25244141 -8.32319641 43.25244141 -8.3371582 41.0390625 C-8.34669022 40.20810059 -8.35622223 39.37713867 -8.36604309 38.52099609 C-8.36513168 37.62719238 -8.36422028 36.73338867 -8.36328125 35.8125 C-8.36756638 34.89162598 -8.3718515 33.97075195 -8.37626648 33.02197266 C-8.38200889 31.07520368 -8.3825107 29.12841324 -8.37817383 27.18164062 C-8.37501203 24.19884793 -8.39848035 21.21704517 -8.42382812 18.234375 C-8.42610089 16.34375125 -8.42680472 14.45312484 -8.42578125 12.5625 C-8.434991 11.66869629 -8.44420074 10.77489258 -8.45368958 9.85400391 C-8.44746078 9.02304199 -8.44123199 8.19208008 -8.43481445 7.3359375 C-8.43544388 6.60552246 -8.4360733 5.87510742 -8.4367218 5.12255859 C-7.95500822 2.63167218 -7.0050279 1.76800722 -5.0625 0.1875 C-3.0625 -0.8125 -3.0625 -0.8125 0 0 Z " fill="#0B0B0B" transform="translate(182.0625,43.8125)"/>
<path d="M0 0 C2.125 1.6875 2.125 1.6875 3 4 C2.92643866 7.01601499 2.58509155 8.42619146 0.41748047 10.55200195 C-2.78173151 12.46823365 -5.99214019 13.00960571 -9.6171875 13.60546875 C-10.3519632 13.73440018 -11.08673889 13.8633316 -11.84378052 13.99617004 C-13.39445847 14.26597702 -14.94608015 14.53040838 -16.49853516 14.78979492 C-18.86202225 15.18532815 -21.22200774 15.59802227 -23.58203125 16.01367188 C-25.09357454 16.27445651 -26.60528844 16.53425463 -28.1171875 16.79296875 C-28.81738007 16.91480026 -29.51757263 17.03663177 -30.23898315 17.16215515 C-40.66787842 18.88808105 -40.66787842 18.88808105 -44.4375 16.375 C-46 14 -46 14 -45.9375 10.875 C-45 8 -45 8 -42 6 C-39.59520627 5.42036066 -37.23568085 4.92567584 -34.8046875 4.4921875 C-34.09780792 4.36184113 -33.39092834 4.23149475 -32.66262817 4.09719849 C-31.16536951 3.8231843 -29.66745139 3.55275276 -28.16894531 3.28564453 C-25.90212162 2.8798551 -23.63863016 2.45835238 -21.375 2.03515625 C-7.15725564 -0.57039264 -7.15725564 -0.57039264 0 0 Z " fill="#0F0F0F" transform="translate(312,152)"/>
<path d="M0 0 C6.74127076 0.15655404 13.36637019 1.43621138 19.98413086 2.640625 C22.24781687 3.04859354 24.51494042 3.43090938 26.78320312 3.8125 C28.23335047 4.07136663 29.68323151 4.33173054 31.1328125 4.59375 C31.80576859 4.70434753 32.47872467 4.81494507 33.17207336 4.92889404 C37.39776481 5.73089879 39.84819279 6.80125812 42.42578125 10.296875 C42.36328125 13.421875 42.36328125 13.421875 41.42578125 16.296875 C34.05031988 21.21384925 20.28818389 16.43608578 11.98828125 14.984375 C10.74884766 14.78392578 9.50941406 14.58347656 8.23242188 14.37695312 C7.03939453 14.16876953 5.84636719 13.96058594 4.6171875 13.74609375 C3.54670166 13.56393311 2.47621582 13.38177246 1.37329102 13.1940918 C-1.99610602 12.16845326 -3.97951476 10.64155206 -6.57421875 8.296875 C-5.55216946 0.4611638 -5.55216946 0.4611638 0 0 Z " fill="#0E0E0E" transform="translate(51.57421875,151.703125)"/>
<path d="M0 0 C2 2 2 2 2.46484375 4.70703125 C1.83604351 9.16147329 -0.47235875 11.5163782 -3.4375 14.6875 C-4.54275461 15.91959784 -5.64691012 17.15268247 -6.75 18.38671875 C-7.30042969 18.99435059 -7.85085938 19.60198242 -8.41796875 20.22802734 C-10.67453966 22.75552605 -12.80500551 25.36680156 -14.9375 28 C-15.65292969 28.87398437 -16.36835938 29.74796875 -17.10546875 30.6484375 C-18.25424675 32.07434339 -19.38685267 33.51377284 -20.48828125 34.9765625 C-22.32501159 37.37625353 -23.71967319 38.87385293 -26.5 40.125 C-30.00031054 39.94998447 -31.50760051 38.34997666 -34 36 C-33.64601039 30.15032172 -31.293276 27.43363994 -27.5 23.3125 C-26.40519694 22.08166504 -25.31145813 20.84988267 -24.21875 19.6171875 C-23.67476562 19.0097168 -23.13078125 18.40224609 -22.5703125 17.77636719 C-20.30888403 15.21819655 -18.15399308 12.58691149 -16 9.9375 C-15.319375 9.10089844 -14.63875 8.26429687 -13.9375 7.40234375 C-12.56513198 5.70071808 -11.21285966 3.98279474 -9.875 2.25390625 C-6.65638857 -1.6151329 -4.72349498 -1.0824676 0 0 Z " fill="#0F0F0F" transform="translate(268,75)"/>
<path d="M0 0 C3.65404535 0.9523134 6.44400002 2.38139531 9.71875 4.26074219 C10.31751953 4.60260559 10.91628906 4.94446899 11.53320312 5.29669189 C12.79288765 6.01860508 14.05002032 6.74498756 15.3046875 7.47558594 C17.20717717 8.58213605 19.11829549 9.6724049 21.03125 10.76074219 C26.80823326 14.0839006 32.32199599 17.28539452 37.21875 21.83886719 C37.84375 24.96386719 37.84375 24.96386719 37.21875 27.83886719 C35.59375 29.77636719 35.59375 29.77636719 33.21875 30.83886719 C27.68111143 30.52079958 23.87494368 28.17635035 19.28125 25.33886719 C18.54704834 24.89470459 17.81284668 24.45054199 17.05639648 23.99291992 C15.53295288 23.07107225 14.01156038 22.14582682 12.4921875 21.21728516 C10.28897265 19.8814442 8.07082289 18.57586906 5.84375 17.28027344 C5.15917725 16.879375 4.47460449 16.47847656 3.76928711 16.06542969 C2.4703775 15.30487448 1.16919265 14.54818818 -0.13452148 13.79589844 C-3.15944997 12.004586 -4.7946913 10.81870524 -6.78125 7.83886719 C-6.59375 4.77636719 -6.59375 4.77636719 -5.78125 1.83886719 C-2.78125 -0.16113281 -2.78125 -0.16113281 0 0 Z " fill="#0F0F0F" transform="translate(261.78125,221.1611328125)"/>
<path d="M0 0 C2.6875 0.9375 2.6875 0.9375 4.6875 3.9375 C4.875 6.75 4.875 6.75 3.6875 9.9375 C-2.50715417 15.08219743 -10.12260127 18.77479165 -17.125 22.6875 C-18.14787109 23.26371094 -19.17074219 23.83992188 -20.22460938 24.43359375 C-22.91516431 25.94537904 -25.60491963 27.45642107 -28.3125 28.9375 C-29.02365967 29.33098633 -29.73481934 29.72447266 -30.4675293 30.12988281 C-33.06505291 31.26692239 -34.65624237 30.7763182 -37.3125 29.9375 C-39.3125 27.9375 -39.3125 27.9375 -39.625 25 C-39.2634441 21.45675215 -38.95337777 21.12502475 -36.3125 18.9375 C-34.42937447 17.74692745 -32.51310644 16.60820312 -30.578125 15.50390625 C-29.44632813 14.85486328 -28.31453125 14.20582031 -27.1484375 13.53710938 C-25.9531886 12.85796098 -24.75787561 12.17892535 -23.5625 11.5 C-22.38256099 10.82530945 -21.20287093 10.15018335 -20.0234375 9.47460938 C-17.77339284 8.18759404 -15.52112345 6.90445819 -13.26635742 5.62573242 C-11.51458427 4.62453304 -9.76955992 3.61110592 -8.0402832 2.5715332 C-5.03436721 0.7659196 -3.59544698 -0.06783862 0 0 Z " fill="#0F0F0F" transform="translate(100.3125,221.0625)"/>
<path d="M0 0 C5.94479629 -0.07401579 11.88932593 -0.12853813 17.83447266 -0.16479492 C19.85795766 -0.17990526 21.8814098 -0.20039437 23.90478516 -0.22631836 C26.80900165 -0.26260328 29.71278615 -0.27970355 32.6171875 -0.29296875 C33.52556366 -0.30845261 34.43393982 -0.32393646 35.36984253 -0.33988953 C36.21056305 -0.34011612 37.05128357 -0.34034271 37.91748047 -0.34057617 C39.03000687 -0.35056892 39.03000687 -0.35056892 40.16500854 -0.36076355 C40.77055573 -0.24171158 41.37610291 -0.12265961 42 0 C42.66 0.99 43.32 1.98 44 3 C40.66586386 8.21864786 36.93154116 10.60698655 31 12 C27.81026515 12.32100701 24.64216256 12.41124999 21.4375 12.4375 C20.23275024 12.4526062 20.23275024 12.4526062 19.00366211 12.46801758 C12.04800103 12.36752078 6.49587917 10.98651607 0.9375 6.5625 C0.298125 5.716875 -0.34125 4.87125 -1 4 C-0.62109375 1.83984375 -0.62109375 1.83984375 0 0 Z " fill="#0D0D0D" transform="translate(159,303)"/>
</svg>
